<svg width="32" height="27" viewBox="0 0 32 27" fill="none" xmlns="http://www.w3.org/2000/svg">
<path d="M0.999999 11.7C0.399999 9.7 0.299999 7.1 0.699999 5.9C1.2 4.4 1.9 3.9 3.4 4.3C4.6 4.6 7.3 5.5 9.5 6.4C11.7 7.2 13.1 8 12.5 8.1C12 8.2 9.7 8.4 7.5 8.4C4.3 8.5 3.4 8.9 3.2 10.5C3 11.6 3.9 14.1 5.2 16C6.5 17.9 9.1 20.5 11 21.7C13.3333 23.3 15.9333 24.0667 18.8 24C22 24 23.7 23.4 25.5 21.5C27.9 19.1 27.9 18.8 26.5 16C25.7 14.3 23.5 12.3 21.5 11.5C19.6 10.7 17.1 10 16 10C14.8 10 14.2 9.5 14.5 8.8C14.9 7.93333 16.3333 7.7 18.8 8.1C20.8 8.4 24.3 9.5 26.5 10.6C28.8 11.7 30.9 13.6 31.4 15C31.9 16.4 32 18.7 31.6 20.2C31.3 21.9 29.6 23.8 27.8 25C25.9 26.1 22.8 27 20.5 27C18.3 27 14.5 26 12.1 24.7C9.6 23.5 6.4 20.9 4.8 19C3.2 17.1 1.5 13.8 0.999999 11.7Z" fill="#9FD06C"/>
<path d="M10.1 10.3C12.3 7.6 15.2 4.3 16.6 2.8C18.3 0.9 20.1 4.34462e-07 22.3 4.34462e-07C24.1 -0.0999996 26.6 0.8 28 1.8C29.4 2.8 30.9 5 31.3 6.6C31.7 8.2 31.8 10.3 31.5 11.3C31.2 12.2 30.5 12.8 30 12.5C29.5 12.2 29 10.9 29 9.5C29 7.9 28 6.2 26.2 4.9C24.4 3.56667 22.8 3.13333 21.4 3.6C20.3 3.9 17.9 5.7 16.1 7.4C14.3 9.1 12.1 11.6 11.2 12.9C9.6 15.1 9.6 15.3 11.5 16.6C12.6 17.4 15.2 18 17.2 18C19.3 18 22.2 17.5 23.7 17C25.3 16.4 26.7 16.2 27 16.5C27.3 16.9 26.8 17.5 26 18C25.2 18.5 22.7 19.2 20.5 19.6C18.1 19.9 14.7 19.6 12.1 18.8C9.7 18.1 7.4 16.9 6.9 16.3C6.3 15.4 7.3 13.4 10.1 10.3Z" fill="#72BFE7"/>
</svg>
