<?xml version="1.0" standalone="no"?>
<!DOCTYPE svg PUBLIC "-//W3C//DTD SVG 20010904//EN"
 "http://www.w3.org/TR/2001/REC-SVG-20010904/DTD/svg10.dtd">
<svg version="1.0" xmlns="http://www.w3.org/2000/svg"
 width="1280.000000pt" height="280.000000pt" viewBox="0 0 1280.000000 280.000000"
 preserveAspectRatio="xMidYMid meet">

<g transform="translate(0.000000,280.000000) scale(0.100000,-0.100000)"
fill="#000000" stroke="none">
<path d="M240 1365 l0 -1245 6280 0 6280 0 0 1245 0 1245 -6280 0 -6280 0 0
-1245z m9646 887 c63 -51 60 -168 -5 -190 -37 -13 -108 1 -132 25 -25 24 -34
79 -20 115 22 57 113 86 157 50z m-7878 -14 c7 -7 12 -22 12 -34 0 -13 5 -26
10 -29 6 -3 10 -12 10 -20 0 -7 14 -44 31 -82 34 -76 38 -85 69 -163 12 -30
57 -143 101 -251 43 -108 79 -199 79 -202 0 -3 13 -34 29 -69 39 -85 81 -192
81 -206 0 -8 -30 -12 -99 -12 l-98 0 -17 43 c-9 23 -16 49 -16 58 0 8 -4 19
-8 24 -5 6 -16 31 -26 56 l-17 46 -91 7 c-50 3 -150 6 -223 6 l-131 0 -23 -52
c-13 -29 -28 -66 -33 -83 -5 -16 -13 -39 -18 -50 -4 -11 -11 -28 -14 -37 -5
-16 -19 -18 -101 -18 -104 0 -111 5 -82 60 7 14 21 50 31 80 10 30 44 118 76
195 32 77 62 151 66 165 3 14 16 45 26 70 41 91 47 106 66 165 12 33 26 74 33
90 7 17 29 77 48 135 l36 105 65 6 c110 10 116 9 128 -3z m1767 -3 c185 -5
241 -16 336 -67 157 -82 243 -241 244 -448 0 -106 -11 -152 -61 -257 -62 -129
-138 -200 -275 -259 -63 -27 -69 -28 -305 -32 l-241 -4 -8 157 c-7 147 3 902
12 917 2 4 32 5 66 3 34 -3 139 -7 232 -10z m3319 -70 c20 -38 36 -73 36 -77
0 -5 25 -60 55 -124 30 -64 55 -118 55 -120 0 -2 13 -32 29 -66 38 -83 121
-294 121 -308 0 -40 56 42 80 117 14 44 60 153 100 238 16 33 44 98 64 145 19
47 46 108 59 135 13 28 30 67 38 88 15 44 18 44 152 50 l97 4 -2 -536 -3 -536
-90 0 -90 0 0 363 c0 199 -3 362 -7 362 -5 0 -8 -7 -8 -16 0 -9 -20 -57 -44
-107 -79 -166 -196 -461 -217 -545 -8 -31 -21 -58 -31 -63 -10 -6 -50 -9 -89
-7 l-72 3 -22 65 c-12 36 -69 175 -127 310 -58 135 -113 266 -122 293 -10 26
-19 47 -20 47 -2 0 -1 -159 2 -354 l5 -353 -89 -5 c-49 -3 -90 -4 -92 -3 -1 1
-5 243 -8 538 l-6 536 99 3 c54 2 101 1 105 -2 4 -3 23 -36 42 -75z m-4401
-167 c4 -133 7 -373 7 -535 l0 -294 -102 3 -103 3 -2 520 c-1 286 -1 526 2
533 3 8 32 12 98 12 l94 0 6 -242z m7547 52 l5 -95 87 -3 86 -3 4 -58 c5 -95
9 -91 -93 -91 l-89 0 0 -177 c1 -268 9 -288 118 -288 l67 0 8 -60 c11 -89 6
-101 -49 -109 -26 -3 -73 -6 -106 -6 -56 0 -61 2 -108 46 -26 25 -57 65 -69
88 -29 62 -43 188 -39 356 3 139 2 145 -17 146 -53 3 -52 2 -57 67 -3 34 -3
68 0 75 2 7 21 12 45 12 l40 0 -7 100 -6 101 87 -3 88 -3 5 -95z m-5363 -100
c155 -70 223 -178 223 -353 0 -61 -4 -89 -12 -92 -7 -2 -115 -6 -241 -8 -125
-2 -230 -6 -233 -9 -9 -10 26 -82 54 -111 15 -16 42 -35 61 -43 46 -19 191
-19 238 1 45 19 63 13 63 -18 0 -14 7 -41 15 -60 19 -47 19 -57 -3 -57 -10 0
-22 -4 -28 -10 -16 -16 -156 -33 -235 -27 -120 8 -243 73 -300 157 -102 152
-88 407 29 533 96 103 261 146 369 97z m754 -4 c83 -34 145 -90 181 -164 28
-56 32 -76 36 -171 l4 -108 -158 -7 c-88 -4 -200 -6 -249 -5 -85 2 -90 1 -93
-20 -7 -43 49 -106 122 -138 40 -18 155 -16 232 3 75 19 78 17 89 -47 4 -21
15 -45 26 -55 27 -25 25 -29 -28 -42 -110 -26 -177 -34 -260 -30 -71 3 -99 9
-147 33 -78 38 -165 124 -199 198 -24 51 -27 69 -27 161 0 104 4 121 50 222
35 77 113 148 197 178 62 22 159 19 224 -8z m482 -38 l-6 -63 43 43 c65 65
106 82 192 82 90 0 160 -32 223 -102 76 -85 89 -124 89 -273 l1 -130 -42 -85
c-60 -124 -137 -188 -251 -210 -87 -17 -125 -7 -185 48 l-50 47 7 -150 c4 -82
9 -165 12 -182 l6 -33 -83 0 c-141 0 -125 -48 -133 394 -4 210 -4 445 0 523
l7 142 36 4 c20 2 60 4 88 5 l53 2 -7 -62z m2447 48 c86 -32 117 -51 170 -104
67 -68 98 -131 109 -218 15 -126 -27 -267 -102 -344 -94 -96 -165 -129 -281
-130 -81 0 -122 15 -199 71 -112 82 -157 174 -157 323 0 207 77 328 250 394
64 24 158 28 210 8z m526 -48 c-8 -65 -1 -69 37 -21 33 42 138 83 211 83 80 0
190 -83 238 -180 22 -44 23 -54 23 -330 l0 -285 -97 -3 -98 -3 0 282 0 282
-36 33 c-30 29 -43 34 -82 34 -54 0 -117 -26 -149 -62 -22 -23 -23 -30 -25
-293 l-3 -270 -87 -1 -87 -1 -3 391 c-2 215 -2 393 -1 396 0 3 38 6 83 6 l82
1 -6 -59z m1801 50 c98 -24 229 -126 270 -209 77 -157 42 -339 -91 -473 -86
-86 -140 -111 -241 -111 -93 0 -122 12 -211 83 -77 62 -119 133 -135 225 -33
197 35 382 166 449 85 44 164 56 242 36z m548 -53 c-4 -36 -4 -65 -1 -65 4 0
19 14 33 31 53 62 146 99 250 99 l33 0 0 -79 c0 -113 2 -111 -90 -111 -62 0
-87 -5 -114 -21 -76 -44 -88 -92 -95 -364 l-6 -220 -76 -3 c-55 -2 -79 1 -87
11 -13 15 -19 240 -14 565 l2 202 53 1 c28 1 63 5 77 9 14 4 29 8 33 9 5 1 5
-28 2 -64z m-1534 37 c4 -4 9 -177 12 -384 l6 -377 -87 -3 c-48 -2 -90 -1 -93
2 -4 3 -10 178 -14 390 l-7 385 89 -3 c48 -2 91 -7 94 -10z m-6571 -332 c0
-43 -3 -85 -6 -94 -5 -14 -36 -16 -245 -16 l-239 0 0 89 c0 53 4 91 10 93 6 2
116 4 245 5 l235 2 0 -79z m2717 -837 c14 -21 18 -50 19 -147 0 -67 2 -127 2
-135 2 -11 15 -13 66 -8 76 7 99 -5 94 -48 -3 -26 -7 -30 -33 -29 -16 1 -65 2
-107 3 l-78 1 0 195 c0 120 4 195 10 195 5 0 17 -12 27 -27z m2134 -11 c1 -9
4 -78 8 -152 l6 -135 73 3 c76 4 79 2 62 -42 -10 -26 -10 -26 -97 -22 -84 5
-88 6 -95 31 -3 15 -4 100 -1 190 6 156 7 164 25 154 10 -5 19 -17 19 -27z
m1349 -61 c61 -87 104 -141 115 -141 3 0 5 43 5 96 0 102 9 134 39 134 22 0
29 -15 25 -50 -1 -14 -3 -91 -3 -172 -1 -135 -3 -148 -19 -148 -29 0 -92 60
-139 133 -46 71 -80 114 -86 106 -2 -2 -1 -46 2 -96 9 -136 -6 -174 -53 -140
-16 12 -18 25 -12 128 16 291 23 300 126 150z m-6253 62 c7 -16 21 -51 32 -79
11 -29 36 -85 56 -126 41 -87 51 -153 21 -153 -19 0 -23 4 -49 67 l-16 37 -68
-6 c-37 -3 -71 -11 -75 -17 -4 -6 -8 -26 -8 -43 0 -28 -4 -33 -22 -33 -60 1
-59 10 16 205 65 167 69 175 86 175 8 0 20 -12 27 -27z m891 -15 l-3 -43 -63
1 -62 1 6 -33 c10 -55 9 -243 -1 -253 -6 -6 -16 -7 -24 -2 -10 6 -13 44 -13
155 l0 147 -41 -1 c-64 -3 -67 -2 -67 23 0 42 17 47 148 47 l123 0 -3 -42z
m170 30 c8 -8 12 -64 12 -185 0 -160 -1 -173 -19 -183 -11 -5 -27 -7 -35 -4
-14 5 -16 31 -16 175 0 117 4 175 12 189 15 23 29 25 46 8z m1428 -55 c23 -38
48 -86 58 -108 9 -22 25 -57 36 -77 11 -20 20 -46 20 -57 0 -11 5 -23 10 -26
20 -12 10 -45 -15 -51 -33 -8 -49 6 -64 56 l-12 40 -74 0 -74 0 -7 -37 c-9
-52 -21 -65 -46 -52 -17 9 -19 17 -14 51 4 23 16 53 27 69 18 25 52 121 80
222 5 20 15 37 22 37 7 0 31 -30 53 -67z m1085 -18 c68 -107 104 -155 114
-151 6 1 14 55 19 120 8 111 10 117 30 114 19 -3 21 -10 24 -98 2 -52 0 -137
-3 -187 -6 -81 -9 -93 -25 -93 -26 0 -71 48 -137 148 l-58 87 -5 -115 c-5
-109 -6 -115 -27 -118 -32 -5 -37 26 -30 206 8 201 20 211 98 87z m1045 77
c30 -20 36 -56 30 -161 -4 -58 -4 -114 -1 -123 6 -14 19 -18 60 -18 45 0 55
-3 60 -20 10 -31 -2 -40 -58 -40 -29 0 -68 -4 -86 -10 -19 -5 -36 -8 -39 -6
-6 7 -2 354 4 371 7 17 14 18 30 7z m557 -30 c13 -22 20 -62 25 -139 10 -167
9 -184 -10 -197 -30 -19 -38 5 -42 120 -2 60 -7 142 -11 183 -7 61 -6 73 6 69
8 -3 22 -19 32 -36z m383 17 c49 -20 64 -34 64 -56 0 -15 -51 -18 -65 -4 -6 5
-27 13 -48 16 -35 7 -41 4 -76 -33 -48 -50 -53 -70 -31 -119 33 -73 91 -114
140 -98 17 5 21 13 18 43 -3 32 -7 38 -32 42 -70 12 -25 53 52 48 l47 -3 0
-74 c0 -69 -2 -75 -27 -94 -17 -12 -48 -22 -80 -24 -47 -4 -58 -1 -93 25 -146
109 -137 247 20 338 30 18 58 16 111 -7z m454 -2 c0 -38 -19 -47 -103 -47
l-78 0 3 -47 3 -48 69 0 c54 0 71 -4 80 -17 16 -26 -3 -39 -60 -39 -72 -1 -84
-6 -84 -39 0 -36 20 -48 94 -54 63 -5 76 -11 76 -31 0 -26 -39 -36 -133 -33
l-92 3 -6 95 c-3 52 -4 134 -1 182 l5 87 71 4 c170 8 156 9 156 -16z m776 7
c46 -22 69 -54 51 -71 -10 -10 -21 -10 -57 1 -88 25 -154 -18 -154 -102 0 -57
22 -94 71 -117 34 -16 36 -16 65 5 27 20 31 20 54 6 33 -22 30 -40 -9 -70 -47
-36 -83 -33 -155 14 -109 70 -131 146 -69 236 36 52 116 114 149 114 11 0 35
-7 54 -16z m-6388 -3 c51 -10 87 -41 103 -88 16 -49 4 -81 -36 -100 -19 -9
-35 -19 -35 -22 0 -4 20 -31 45 -61 51 -61 55 -93 14 -98 -21 -3 -29 5 -52 47
-29 53 -92 115 -110 108 -8 -3 -11 -30 -10 -81 l2 -77 -27 3 -27 3 -3 175 c-1
96 0 180 2 187 6 15 68 17 134 4z m1006 1 c3 -5 2 -18 -1 -30 -4 -18 -13 -22
-47 -23 -22 -1 -54 -4 -71 -8 -27 -6 -30 -10 -30 -46 l0 -40 55 -3 c81 -3 100
-10 100 -32 0 -18 -7 -20 -70 -20 l-70 0 0 -80 c0 -71 -2 -80 -19 -80 -15 0
-19 11 -25 61 -11 111 -7 297 7 302 21 9 166 8 171 -1z m1919 -118 c8 -130 4
-231 -11 -246 -6 -6 -15 -3 -25 7 -14 13 -16 41 -16 173 1 86 5 165 11 175 21
41 33 9 41 -109z m791 106 c5 -5 6 -21 2 -35 -6 -25 -10 -26 -54 -23 l-47 3 4
-141 c3 -148 0 -161 -39 -149 -18 6 -20 17 -22 152 l-3 146 -45 1 c-45 1 -60
16 -47 49 5 14 236 11 251 -3z m3066 -4 c0 -34 -14 -40 -90 -41 l-65 -2 0 -44
0 -44 50 -2 c28 -1 56 -2 63 -2 13 -1 17 -51 5 -52 -44 -3 -108 -10 -109 -12
-2 -1 -4 -20 -6 -42 l-3 -40 75 -5 c67 -4 75 -7 78 -26 3 -20 -3 -22 -85 -28
-48 -4 -97 -8 -108 -9 -19 -2 -20 5 -23 180 l-2 182 92 4 c51 1 101 4 111 5
12 1 17 -5 17 -22z m-5615 4 c3 -5 9 -84 12 -174 l6 -165 -27 -12 c-23 -11
-29 -10 -37 2 -8 13 -3 317 7 347 4 14 30 16 39 2z m390 4 c8 -4 22 -19 30
-34 19 -37 1 -56 -39 -40 -38 14 -125 13 -140 -3 -41 -41 -47 -104 -15 -157
40 -64 78 -76 130 -39 36 26 75 22 71 -6 -8 -43 -73 -85 -132 -85 -35 0 -91
44 -124 98 -50 83 -23 216 52 256 27 15 136 21 167 10z m226 -15 c7 -14 10
-72 7 -170 -2 -122 -6 -151 -20 -165 -9 -9 -24 -14 -32 -11 -14 5 -16 28 -16
149 0 177 6 218 31 218 10 0 23 -9 30 -21z m2267 -6 c-3 -28 -3 -28 -83 -28
l-80 0 0 -45 0 -45 40 -3 c82 -5 105 -12 105 -32 0 -21 -7 -23 -90 -24 l-45
-1 0 -50 0 -50 78 4 79 3 -4 -29 -3 -28 -100 -6 c-55 -3 -103 -4 -107 -2 -5 2
-8 85 -8 184 l0 179 111 0 110 0 -3 -27z m-4888 -146 c0 -11 -74 -15 -412 -20
-639 -11 -820 -9 -816 6 6 15 189 21 786 25 367 2 442 0 442 -11z m8505 4 c3
-5 0 -13 -7 -18 -15 -10 -643 -17 -667 -8 -14 6 -14 8 3 21 16 11 79 14 342
14 189 0 325 -4 329 -9z"/>
<path d="M1910 1992 c0 -12 -12 -52 -26 -89 -14 -38 -32 -86 -39 -108 -8 -22
-27 -78 -44 -124 -17 -47 -29 -86 -28 -88 2 -1 74 -6 160 -9 l157 -7 -16 39
c-9 21 -27 64 -41 94 -14 30 -45 110 -68 178 -44 128 -55 150 -55 114z"/>
<path d="M3676 2072 c-9 -8 -7 -730 2 -735 4 -2 63 -1 132 3 103 6 132 11 165
29 65 37 95 71 133 151 31 66 36 87 40 169 5 104 -8 183 -41 240 -51 91 -111
127 -223 136 -135 10 -203 13 -208 7z"/>
<path d="M4668 1785 c-25 -17 -41 -38 -52 -71 -26 -78 -34 -74 144 -74 146 0
160 2 160 18 0 38 -21 87 -52 119 -30 31 -36 33 -98 33 -53 0 -72 -5 -102 -25z"/>
<path d="M5470 1810 c-19 -3 -45 -12 -57 -18 -33 -18 -63 -75 -63 -118 l0 -39
155 3 155 3 0 30 c0 38 -34 105 -63 123 -28 17 -82 24 -127 16z"/>
<path d="M6211 1788 c-65 -33 -78 -59 -85 -160 -8 -120 2 -200 28 -231 102
-119 264 -73 307 87 14 52 6 190 -14 237 -34 81 -148 113 -236 67z"/>
<path d="M8375 1791 c-16 -10 -37 -27 -46 -37 -47 -54 -63 -207 -33 -302 10
-31 31 -65 56 -89 38 -37 42 -38 108 -38 80 0 107 15 157 88 53 79 62 167 27
287 -8 29 -59 79 -96 95 -52 21 -136 19 -173 -4z"/>
<path d="M10764 1796 c-17 -8 -44 -30 -59 -50 -25 -33 -29 -47 -33 -136 -6
-121 0 -156 37 -210 45 -67 96 -85 168 -60 32 12 94 86 118 143 42 101 -4 270
-85 312 -36 18 -105 19 -146 1z"/>
<path d="M3231 643 c-19 -65 -15 -83 17 -83 48 0 54 17 26 71 -13 27 -26 49
-29 49 -2 0 -9 -17 -14 -37z"/>
<path d="M5687 619 c-10 -28 -17 -52 -15 -53 7 -5 98 6 98 13 0 13 -45 85 -55
88 -6 2 -18 -20 -28 -48z"/>
<path d="M3599 704 c-5 -7 -9 -30 -7 -51 l3 -38 52 0 c29 1 58 6 64 12 16 16
3 60 -21 73 -30 16 -79 19 -91 4z"/>
</g>
</svg>
