<svg width="228" height="34" viewBox="0 0 228 34" fill="none" xmlns="http://www.w3.org/2000/svg">
<path fill-rule="evenodd" clip-rule="evenodd" d="M1 1H227V33H1V1ZM22.1 8.3C20.7 8.9 19.5 10.1 19.3 10.8C19.1 11.5 19.9 12 21.2 12C22.5 12 25.2 12.6 27.2 13.5C29.3 14.3 31.2 15 31.5 15C31.8 15 32 14.1 32 13C32 11.9 30.8 10.1 29.2 9C27.7 7.8 26 7 25.5 7C24.9 7 23.4 7.6 22.1 8.3ZM6.4 13.3C6.1 13.9 6 15.5 6.4 16.8C6.7 18 8.2 20.4 9.7 22.1C11.3 23.9 13.7 25.9 15.2 26.6C16.8 27.4 19.8 28 22 28C25 28 26.7 27.4 28.5 25.5C29.9 24.1 30.9 22.8 30.7 22.5C30.6 22.2 28.2 22.5 25.5 23.2C21.5 24.1 19.5 24 15.6 22.9C12.9 22.1 10.2 20.9 9.6 20.2C8.8 19.2 9.2 18.3 11.3 16.2C13.6 14 13.8 13.4 12.5 12.8C11.7 12.3 10.1 12 9 12C8 12 6.8 12.6 6.4 13.3V13.3ZM14.4 16.5C12.5 19.2 12.5 19.3 14.5 20.6C15.6 21.4 18.2 22 20.3 22C22.3 22 25.1 21.6 26.5 21C27.9 20.5 29 19.6 29 19C29 18.5 28 17.3 26.7 16.5C25.5 15.7 22.7 14.7 20.4 14.4C16.7 13.8 16.1 14.1 14.4 16.5V16.5Z" fill="rgba(0, 0, 0, 0)"/>
<path d="M112.5 7C109.5 7 106.7 6.5 106.4 6C106 5.4 110.3 5 118.4 5C126.1 5 131 5.4 131 6C131 6.5 128.5 7 120 7V16.5C120 21.8 119.6 26.2 119 26.5C118.4 26.8 118 23.3 118 7H112.5Z" fill="#9FD06C"/>
<path d="M133.9 15.8C133.9 10 134.2 7.8 135.5 6.6C136.8 5.3 139.5 5 147.6 5C153.9 5 158 5.4 158 6C158 6.6 153.6 7.1 136.5 7.5L136 15H147C153.7 15 158 15.4 158 16C158 16.6 153.7 17 136 17L136.5 24.5L147.2 24.8C153.6 24.9 158 25.4 158 26C158 26.6 153.9 27 147.7 27C139.4 27 137.2 26.6 135.7 25.2C134.3 23.9 133.9 21.8 133.9 15.8Z" fill="#9FD06C"/>
<path d="M161.9 15.8C161.9 10 162.2 7.8 163.5 6.6C164.8 5.3 167.5 5 175.6 5C181.9 5 186 5.4 186 6C186 6.6 181.6 7.1 164.5 7.5V24.5L175.2 24.8C181.6 24.9 186 25.4 186 26C186 26.6 181.9 27 175.7 27C167.4 27 165.2 26.6 163.7 25.2C162.3 23.9 161.9 21.8 161.9 15.8Z" fill="#9FD06C"/>
<path d="M191 26.5C190.4 26.2 190 21.5 190 15.5C190 9.2 190.4 5 191 5C191.6 5 192 7.2 192 15H213V10C213 7.3 213.4 5 214 5C214.6 5 215 9.2 215 15.5C215 21.5 214.6 26.2 214 26.5C213.4 26.8 213 25 213 17H192V22C192 25 191.6 26.8 191 26.5Z" fill="#9FD06C"/>
<path d="M4 15.7C3.4 13.7 3.3 11.1 3.7 9.9C4.2 8.4 4.9 7.9 6.4 8.3C7.6 8.6 10.3 9.5 12.5 10.4C14.7 11.2 16.1 12 15.5 12.1C15 12.2 12.7 12.4 10.5 12.4C7.3 12.5 6.4 12.9 6.2 14.5C6 15.6 6.9 18.1 8.2 20C9.5 21.9 12.1 24.5 14 25.7C16.3333 27.3 18.9333 28.0667 21.8 28C25 28 26.7 27.4 28.5 25.5C30.9 23.1 30.9 22.8 29.5 20C28.7 18.3 26.5 16.3 24.5 15.5C22.6 14.7 20.1 14 19 14C17.8 14 17.2 13.5 17.5 12.8C17.9 11.9333 19.3333 11.7 21.8 12.1C23.8 12.4 27.3 13.5 29.5 14.6C31.8 15.7 33.9 17.6 34.4 19C34.9 20.4 35 22.7 34.6 24.2C34.3 25.9 32.6 27.8 30.8 29C28.9 30.1 25.8 31 23.5 31C21.3 31 17.5 30 15.1 28.7C12.6 27.5 9.4 24.9 7.8 23C6.2 21.1 4.5 17.8 4 15.7Z" fill="#9FD06C"/>
<path d="M13.1 14.3C15.3 11.6 18.2 8.3 19.6 6.8C21.3 4.9 23.1 4 25.3 4C27.1 3.9 29.6 4.8 31 5.8C32.4 6.8 33.9 9 34.3 10.6C34.7 12.2 34.8 14.3 34.5 15.3C34.2 16.2 33.5 16.8 33 16.5C32.5 16.2 32 14.9 32 13.5C32 11.9 31 10.2 29.2 8.9C27.4 7.56667 25.8 7.13333 24.4 7.6C23.3 7.9 20.9 9.7 19.1 11.4C17.3 13.1 15.1 15.6 14.2 16.9C12.6 19.1 12.6 19.3 14.5 20.6C15.6 21.4 18.2 22 20.2 22C22.3 22 25.2 21.5 26.7 21C28.3 20.4 29.7 20.2 30 20.5C30.3 20.9 29.8 21.5 29 22C28.2 22.5 25.7 23.2 23.5 23.6C21.1 23.9 17.7 23.6 15.1 22.8C12.7 22.1 10.4 20.9 9.9 20.3C9.3 19.4 10.3 17.4 13.1 14.3Z" fill="#72BFE7"/>
<path d="M54.8 22.5C54.5 18.6 53.8 17.3 48.5 11.5C45.2 7.9 43 5 43.5 5C44.1 5 47.1 7.6 56.1 16.5L61.5 10.8C64.4 7.6 67.4 5 68.2 5C68.9 4.9 66.7 7.9 63.3 11.5C57.7 17.3 57 18.5 57 22C57 24.2 56.5 26.2 56 26.5C55.4 26.8 54.9 25.1 54.8 22.5Z" fill="#72BFE7"/>
<path d="M71.9 11.3C71.9 9.6 72.6 7.4 73.5 6.6C74.8 5.3 77.5 5 85.6 5C91.9 5 96 5.4 96 6C96 6.6 91.6 7.1 74.5 7.5V14.5L84 14.8C89.5 15 94 15.6 94.8 16.3C95.5 17 96.1 19.2 96 21.2C96 24 95.5 25.3 94 26C92.9 26.6 87.7 27 82.5 27C76.8 27 73 26.6 73 26C73 25.4 77.4 24.9 94.5 24.5V17.5L84.5 17.2C78.6 17 74 16.4 73.2 15.7C72.5 15 71.9 13.1 71.9 11.3Z" fill="#72BFE7"/>
<path d="M101 26.5C100.4 26.2 100 21.5 100 15.5C100 9.2 100.4 5 101 5C101.6 5 102 9.3 102 16C102 23 101.6 26.8 101 26.5Z" fill="#72BFE7"/>
<path fill-rule="evenodd" clip-rule="evenodd" d="M1 1H227V33H1V1ZM20.4 11.9C20.6667 11.9 20.9333 11.9333 21.2 12C21.2 12 21.2333 12 21.3 12C22.5 12 25.2 12.6 27.3 13.5C29.3 14.3 31.2 15 31.5 15C31.7 15 32 14.3 32 13.3C32 12.5 31.7 11.7 31.2 11C30.7 10.2 30 9.5 29.3 9C28.9 8.66667 28.5 8.4 28.1 8.2C26.7667 7.4 25.5333 7.2 24.4 7.6C23.3 7.9 21.1 9.5 19.3 11.1C19.4 11.5 19.8 11.8 20.4 11.9V11.9ZM22 28C25 28 26.7 27.4 28.5 25.5C29.1 24.9 29.7 24.3 30.1 23.8C30.4 23.3 30.5 22.9 30.4 22.4C29.7 22.4 27.9 22.6 25.8 23.1C25.4667 23.1667 25.1333 23.2333 24.8 23.3C21.9 23.9 20.1 24 17.6 23.4C16.7333 23.2667 15.9 23.0667 15.1 22.8C13.7 22.4 12.3 21.8 11.2 21.2C10.5 20.9 9.9 20.5 9.6 20.2C8.8 19.2 9.2 18.3 11.3 16.2C11.6333 15.8667 11.9333 15.5667 12.2 15.3C12.4667 14.9667 12.7333 14.6333 13 14.3C13.5 13.5 13.3 13.1 12.5 12.7C12.2333 12.5667 11.9 12.4667 11.5 12.4C11.1667 12.4 10.8333 12.4 10.5 12.4C7.3 12.5 6.4 12.9 6.2 14.5C6 15.6 6.9 18.1 8.2 20C9.5 21.9 12.1 24.5 14 25.7C15.0667 26.4333 16.2 27 17.4 27.4C18.9 27.8 20.6 28 22 28V28ZM26.5 21C27.8 20.5 28.8 19.7 29 19.1C27.9 17.7 26.2 16.2 24.5 15.5C24.1 15.3 23.7 15.1333 23.3 15C22.3 14.7 21.3 14.5 20.4 14.4C17.9 14 16.8 14 15.8 14.8C15.1 15.6 14.5 16.3 14.2 16.9C12.6 19.1 12.6 19.3 14.5 20.6C15.6 21.4 18.2 22 20.3 22C20.5667 22 20.8667 22 21.2 22C23.1 21.9 25.3 21.5 26.5 21V21Z" fill="rgba(0, 0, 0, 0)"/>
</svg>
